<?xml version="1.0" standalone="no"?>
<!DOCTYPE svg PUBLIC "-//W3C//DTD SVG 20010904//EN"
 "http://www.w3.org/TR/2001/REC-SVG-20010904/DTD/svg10.dtd">
<svg version="1.0" xmlns="http://www.w3.org/2000/svg"
 width="698.000000pt" height="698.000000pt" viewBox="0 0 698.000000 698.000000"
 preserveAspectRatio="xMidYMid meet">
<metadata>
Created by potrace 1.14, written by Peter Selinger 2001-2017
</metadata>
<g transform="translate(0.000000,698.000000) scale(0.100000,-0.100000)"
fill="#000000" stroke="none">
<path d="M3605 6170 c-23 -8 -196 -20 -370 -25 -66 -2 -136 -6 -156 -9 -20 -3
-56 -7 -80 -10 -24 -2 -60 -7 -79 -10 -19 -3 -62 -8 -95 -11 -64 -6 -86 -8
-180 -20 -89 -10 -152 -20 -245 -35 -30 -5 -75 -12 -100 -15 -25 -3 -52 -8
-60 -10 -8 -2 -33 -7 -55 -10 -23 -3 -52 -7 -65 -10 -42 -8 -163 -21 -285 -30
-85 -6 -172 -16 -198 -21 -12 -2 -42 -7 -67 -9 -25 -3 -58 -8 -75 -12 -16 -3
-43 -7 -60 -9 -26 -2 -63 -9 -100 -18 -5 -2 -28 -6 -50 -11 -51 -10 -74 -15
-105 -22 -14 -3 -34 -7 -45 -8 -11 -2 -20 -4 -20 -5 0 -2 -9 -4 -20 -6 -11 -2
-50 -9 -87 -17 -38 -8 -68 -12 -68 -10 0 2 -8 -1 -19 -6 -10 -6 -33 -13 -52
-16 -44 -8 -58 -21 -53 -51 2 -13 -2 -38 -11 -54 -13 -24 -20 -72 -27 -187 -1
-7 -4 -13 -7 -13 -4 0 -8 -11 -9 -26 -1 -14 -6 -33 -11 -42 -13 -26 -5 -238
10 -267 5 -9 4 -90 -1 -90 -2 0 -6 -49 -13 -161 -2 -27 -7 -56 -12 -63 -4 -8
-2 -17 6 -22 8 -5 10 -9 4 -9 -6 0 -10 -35 -11 -83 -2 -120 -9 -231 -17 -243
-3 -6 -3 -14 1 -18 10 -10 9 -40 -2 -47 -4 -4 -3 -16 3 -27 6 -11 7 -23 3 -26
-5 -3 -8 -113 -8 -246 1 -154 -3 -240 -9 -240 -6 0 -6 -3 1 -8 6 -4 10 -37 9
-77 -1 -38 2 -78 8 -89 6 -13 6 -16 -3 -11 -9 6 -9 2 -1 -14 9 -16 9 -21 -1
-21 -9 0 -9 -3 0 -12 7 -7 8 -17 2 -29 -7 -12 -6 -20 0 -24 6 -4 8 -10 5 -15
-10 -16 -12 -80 -3 -80 5 0 6 -5 2 -12 -4 -7 -9 -57 -10 -113 -4 -139 -13
-274 -20 -310 -3 -16 -7 -82 -9 -145 -2 -63 -4 -115 -5 -115 -1 0 -10 -197
-13 -291 -1 -56 2 -74 16 -88 20 -21 22 -32 5 -39 -10 -4 -10 -6 0 -6 7 -1 11
-5 8 -10 -6 -9 48 -71 62 -71 12 0 100 -88 94 -94 -3 -3 0 -6 6 -6 18 0 142
-130 155 -163 3 -9 14 -17 23 -17 10 0 15 -3 11 -6 -3 -3 0 -12 6 -20 41 -48
66 -71 71 -66 3 3 6 0 6 -5 0 -13 111 -129 120 -126 3 1 15 -12 25 -28 11 -16
26 -29 34 -29 8 0 12 -3 8 -6 -10 -10 143 -154 164 -154 5 0 7 -4 4 -10 -3 -5
-3 -10 2 -10 4 0 31 -22 60 -49 28 -27 54 -46 57 -43 3 3 6 -2 6 -12 0 -9 5
-14 10 -11 6 3 10 -1 10 -9 0 -9 6 -16 13 -16 6 -1 23 -14 37 -30 13 -17 30
-30 37 -30 7 0 13 -4 13 -9 0 -5 9 -13 20 -16 11 -3 20 -13 20 -21 0 -8 7 -14
15 -14 7 0 18 -6 22 -13 4 -7 31 -27 58 -45 28 -17 62 -43 77 -57 15 -14 38
-29 52 -35 14 -5 26 -14 26 -20 0 -6 3 -9 8 -7 4 2 21 -4 37 -14 17 -11 38
-22 48 -25 9 -4 17 -10 17 -15 0 -5 6 -9 14 -9 8 0 16 -4 18 -8 3 -9 93 -72
102 -72 6 0 36 -24 61 -48 8 -6 16 -12 19 -12 8 0 111 -65 114 -72 2 -5 10 -8
17 -8 8 0 17 -9 20 -20 3 -11 13 -20 21 -20 8 0 14 -4 14 -9 0 -19 36 -16 59
6 14 12 28 20 31 18 14 -9 64 -14 74 -7 6 4 14 7 19 8 4 1 8 2 10 4 3 2 33 7
92 15 86 11 292 68 378 104 83 36 79 34 167 56 8 2 17 4 20 5 3 1 10 3 15 5 6
1 12 3 15 4 5 3 11 4 60 14 14 3 40 10 58 16 18 5 33 10 35 9 5 -1 100 25 232
64 77 22 146 41 153 41 6 0 12 3 12 7 0 3 8 6 18 7 9 1 85 18 167 38 83 20
159 38 170 40 44 10 115 24 160 31 17 3 46 9 66 13 20 5 59 7 85 6 27 -1 65 2
84 7 19 5 46 11 59 14 13 3 32 9 43 15 10 5 18 8 18 5 0 -3 15 0 33 5 17 6 55
12 82 15 55 5 100 11 100 14 0 1 9 3 19 5 11 2 31 7 45 11 14 4 30 6 34 6 4
-1 16 2 25 7 9 5 31 11 47 14 17 3 42 10 58 16 15 6 27 8 27 5 0 -4 7 0 17 7
9 8 17 12 17 10 1 -5 78 9 91 17 11 7 22 10 67 16 15 3 35 7 45 10 64 19 197
30 219 18 36 -20 82 11 75 52 -2 11 32 36 41 30 4 -2 14 6 22 18 13 18 16 19
16 5 0 -9 -5 -17 -11 -17 -7 0 -9 -19 -5 -57 6 -64 30 -95 66 -86 20 5 45 67
34 85 -3 4 -1 8 5 8 5 0 8 8 7 17 -2 10 3 35 10 56 7 20 11 37 9 37 -3 0 0 12
6 27 9 24 19 66 43 183 5 27 12 59 21 102 4 15 8 39 10 55 2 15 11 62 20 103
17 80 42 204 51 253 2 17 7 34 10 38 9 15 75 295 80 339 3 25 7 56 9 70 3 14
7 66 10 115 7 125 22 273 31 319 3 12 7 46 10 76 2 30 6 69 8 85 2 17 7 57 11
90 4 33 18 107 32 165 13 58 26 114 29 125 5 24 12 57 19 88 3 12 8 35 10 50
2 16 11 58 20 95 9 36 18 73 20 81 2 9 8 34 13 56 6 22 13 56 16 75 3 19 8 46
11 60 6 29 13 76 21 140 3 25 7 56 10 70 2 14 7 49 10 79 3 30 7 58 9 61 2 4
7 66 11 138 5 108 4 134 -8 146 -10 9 -20 11 -29 5 -20 -12 -29 -11 -29 4 0 7
-9 30 -20 52 -22 42 -26 80 -10 90 12 7 -6 58 -65 180 -48 102 -63 139 -68
175 -4 28 -11 46 -38 107 -10 24 -19 50 -19 58 0 8 -5 15 -10 15 -6 0 -9 3 -8
8 0 4 -2 16 -7 27 -78 201 -105 288 -99 312 4 15 -1 26 -20 38 -31 21 -57 16
-72 -12 -14 -29 -211 -161 -246 -165 -15 -2 -30 -7 -34 -10 -3 -4 -12 -4 -20
-1 -8 3 -14 0 -14 -6 0 -6 -6 -8 -14 -5 -7 3 -20 -1 -27 -9 -8 -7 -20 -12 -27
-9 -6 2 -12 -2 -12 -8 0 -6 -6 -10 -12 -8 -7 3 -18 0 -25 -6 -30 -26 -43 -36
-47 -36 -6 0 -39 -25 -67 -52 -9 -9 -20 -13 -24 -10 -4 4 -5 2 -3 -5 1 -6 -14
-30 -36 -52 -30 -32 -41 -39 -52 -30 -7 6 -23 12 -36 14 -13 2 -43 9 -68 15
-25 7 -54 13 -65 16 -37 7 -149 46 -178 61 -16 8 -38 16 -50 19 -11 2 -24 9
-29 16 -4 7 -8 10 -8 6 0 -4 -15 -2 -32 3 -18 6 -40 12 -48 14 -8 2 -17 4 -20
5 -3 1 -8 2 -12 1 -5 0 -8 3 -8 9 0 8 -38 22 -100 35 -8 2 -30 8 -49 14 -18 6
-36 9 -40 9 -8 -3 -179 51 -219 69 -18 8 -40 16 -50 18 -9 2 -33 10 -53 19
-20 8 -39 12 -43 9 -3 -4 -6 -1 -6 5 0 7 -6 12 -12 12 -20 0 -252 94 -260 105
-4 5 -8 7 -8 2 0 -4 -13 -1 -29 7 -16 9 -31 12 -35 9 -3 -4 -6 -1 -6 5 0 7
-11 12 -24 12 -14 0 -27 4 -30 9 -6 8 -66 23 -76 19 -3 -2 -16 5 -30 15 -26
18 -70 23 -70 8 0 -11 -39 -11 -55 -1 -20 14 -41 17 -60 10z m-994 -171 c-13
-5 -36 -10 -50 -11 -14 -1 -28 -5 -31 -9 -3 -4 -18 -8 -35 -10 -16 -2 -34 -6
-40 -10 -9 -6 -29 -11 -90 -26 -40 -9 -50 -12 -50 -13 0 -2 -24 -7 -70 -15
-22 -4 -47 -10 -55 -15 -8 -4 -23 -6 -32 -5 -10 2 -18 0 -18 -4 0 -7 -17 -9
-150 -14 -47 -2 -89 -1 -95 2 -5 3 -18 6 -27 7 -37 3 -40 4 -36 15 2 6 28 13
58 15 104 6 315 34 335 44 3 1 13 3 23 4 38 4 137 18 157 23 11 2 36 6 55 9
19 2 58 8 85 13 28 5 59 9 70 9 17 1 16 -1 -4 -9z m3510 -161 c11 -21 6 -21
-39 -4 l-33 12 22 28 23 29 9 -24 c5 -13 13 -32 18 -41z m-5225 -135 c-7 -7
-26 7 -26 19 0 6 6 6 15 -2 9 -7 13 -15 11 -17z m2715 -696 c-6 -6 -11 -18
-11 -27 0 -9 -7 -25 -16 -36 -15 -19 -16 -19 -9 1 4 11 9 33 11 49 2 16 10 36
16 44 12 13 13 13 16 -3 2 -9 -1 -22 -7 -28z m-2775 -90 c2 -7 5 -23 8 -37 18
-79 25 -137 32 -295 9 -188 10 -259 5 -270 -3 -5 -6 -26 -7 -45 -1 -32 -11
-120 -20 -180 -2 -14 -6 -41 -9 -60 -2 -19 -6 -46 -9 -60 -3 -14 -7 -59 -11
-100 -3 -41 -8 -97 -11 -125 -3 -27 -6 -56 -6 -62 -3 -30 -18 -10 -19 25 -3
71 -6 117 -8 127 -2 6 -2 15 -1 20 6 27 4 235 -3 235 -4 0 -3 9 3 20 8 15 8
20 -2 20 -8 0 -9 3 -3 8 6 4 10 53 10 109 0 57 2 103 5 103 3 0 5 17 4 38 -1
20 2 42 7 49 7 7 7 13 0 17 -10 7 -9 25 2 44 5 6 4 12 -2 12 -7 0 -7 8 -2 23
5 14 5 30 0 40 -7 11 -6 17 0 17 5 0 10 8 9 18 0 16 12 294 14 320 1 14 11 7
14 -11z m-26 -1261 c0 -11 -19 -15 -25 -6 -3 5 1 10 9 10 9 0 16 -2 16 -4z m0
-30 c0 -2 -7 -9 -15 -16 -13 -11 -14 -10 -9 4 5 14 24 23 24 12z m311 -1568
c11 -11 19 -18 19 -14 0 4 10 -3 23 -14 26 -24 75 -65 117 -100 17 -14 51 -44
75 -67 25 -23 45 -40 45 -38 0 5 52 -40 112 -97 21 -21 41 -38 43 -38 7 0 55
-42 126 -111 33 -31 59 -54 59 -52 0 2 10 -6 23 -19 38 -38 158 -142 173 -151
8 -5 12 -13 8 -18 -3 -5 -1 -8 4 -7 9 3 64 -40 146 -114 22 -21 35 -38 29 -38
-7 0 -13 5 -13 11 0 5 -4 7 -10 4 -5 -3 -10 -1 -10 4 0 6 -9 11 -20 11 -11 0
-20 5 -20 10 0 6 -7 10 -15 10 -8 0 -15 5 -15 10 0 6 -6 10 -14 10 -8 0 -22
10 -30 22 -9 12 -16 19 -16 15 0 -7 -11 0 -45 31 -8 7 -15 11 -15 7 0 -6 -16
6 -55 43 -14 13 -25 20 -25 16 0 -4 -10 4 -23 17 -12 13 -47 43 -78 66 -30 24
-67 55 -81 70 -14 16 -47 46 -73 68 -26 22 -65 56 -86 76 -21 20 -39 35 -39
34 0 -2 -19 15 -43 38 -24 23 -41 45 -39 50 2 4 -4 7 -12 7 -9 0 -16 4 -16 9
0 13 -140 151 -153 151 -6 0 -7 3 -4 6 4 4 -8 21 -26 38 -40 38 -62 66 -52 66
4 0 16 -10 26 -22z m1044 -898 c3 -6 -1 -7 -9 -4 -18 7 -21 14 -7 14 6 0 13
-4 16 -10z"/>
</g>
</svg>
